<svg preserveAspectRatio="none" width="100%" height="100%" overflow="visible" style="display: block;" viewBox="0 0 200 24" fill="none" xmlns="http://www.w3.org/2000/svg">
<g id="Brand">
<path id="Shape" d="M25.3136 11.6035C25.3426 10.5247 25.1734 9.44972 24.8144 8.43198C24.5306 7.64797 24.0717 6.93904 23.4727 6.35913C22.9384 5.85154 22.3019 5.46395 21.6056 5.22231C20.9374 4.99182 20.2356 4.87372 19.5288 4.8728C18.4023 4.84795 17.2938 5.15759 16.3432 5.7626C15.4196 6.37213 14.6849 7.22789 14.2222 8.23313C13.6974 9.37759 13.4383 10.6259 13.4641 11.8847C13.4362 13.1346 13.6956 14.3742 14.2224 15.5081C14.6934 16.508 15.4454 17.349 16.3866 17.9284C17.4015 18.5233 18.5629 18.8218 19.7388 18.7901C20.5792 18.803 21.4146 18.6592 22.2024 18.3664C22.8954 18.1073 23.5236 17.7001 24.0432 17.1733C24.534 16.6719 24.8977 16.0603 25.1037 15.3896L23.1052 14.8293C22.9468 15.2701 22.6922 15.6701 22.36 16.0003C22.0345 16.3147 21.6441 16.554 21.2162 16.7013C20.7403 16.8612 20.2408 16.9393 19.7388 16.9322C18.9702 16.9488 18.211 16.7602 17.5395 16.3859C16.8984 16.0098 16.384 15.4511 16.0622 14.7811C15.7261 14.0607 15.5496 13.2762 15.5446 12.4813H25.3136V11.6035ZM15.5493 10.6916C15.5842 10.0766 15.7422 9.47486 16.014 8.92205C16.3276 8.28258 16.8038 7.73677 17.3949 7.33932C18.0276 6.92365 18.7722 6.7113 19.5289 6.73072C20.2148 6.71431 20.8912 6.89332 21.4792 7.24684C22.0288 7.58926 22.4719 8.07828 22.7587 8.65887C23.0678 9.29115 23.2224 9.98782 23.2096 10.6915L15.5493 10.6916Z" fill="var(--fill-0, white)"/>
<path id="Path" d="M30.5379 10.4124V18.5109H28.469V5.04757H30.4676V7.15053H30.6423C30.9533 6.47356 31.4525 5.90041 32.0804 5.49949C32.7232 5.0817 33.5527 4.8728 34.5691 4.8728C35.4009 4.85354 36.2242 5.04493 36.9623 5.42919C37.6559 5.81077 38.2134 6.39912 38.5571 7.11236C38.9661 8.00302 39.1611 8.977 39.1265 9.95647V18.5109H37.0586V10.0971C37.0586 9.03856 36.7838 8.21304 36.2341 7.62052C35.6848 7.028 34.9313 6.73141 33.9735 6.73074C33.3575 6.71942 32.7489 6.86748 32.207 7.16056C31.6859 7.45002 31.261 7.88574 30.9848 8.41391C30.6705 9.03204 30.5168 9.7193 30.5379 10.4124Z" fill="var(--fill-0, white)"/>
<path id="Path_2" d="M51.8699 8.06241L50.012 8.58865C49.8864 8.26271 49.7138 7.95686 49.4998 7.68077C49.2544 7.37031 48.9411 7.12021 48.5839 6.94967C48.119 6.74051 47.6121 6.64153 47.1026 6.66043C46.3754 6.63291 45.6574 6.83073 45.0469 7.22685C44.5425 7.52847 44.2319 8.07126 44.2274 8.65894C44.2082 9.13183 44.417 9.58523 44.7888 9.87813C45.3157 10.2437 45.9123 10.4967 46.5414 10.6213L48.5399 11.1134C49.743 11.4047 50.6399 11.8499 51.2304 12.4491C51.8278 13.0664 52.1477 13.9005 52.1162 14.7589C52.125 15.502 51.8928 16.2278 51.4544 16.8278C50.9784 17.4628 50.3415 17.9592 49.6095 18.2659C48.7388 18.6314 47.801 18.81 46.8568 18.7901C45.4839 18.7901 44.3474 18.4922 43.4473 17.8963C42.5442 17.2967 41.9266 16.3528 41.7388 15.2852L43.7021 14.7951C43.8437 15.4509 44.2229 16.0311 44.7667 16.424C45.3794 16.8123 46.0969 17.0023 46.8214 16.9684C47.7855 16.9684 48.5524 16.7621 49.1222 16.3497C49.6927 15.9379 49.9775 15.4425 49.9769 14.8634C49.9862 14.4196 49.8083 13.9924 49.4868 13.6864C49.0576 13.3165 48.5364 13.0694 47.9784 12.9713L45.7348 12.4451C44.5025 12.1538 43.5984 11.6999 43.0222 11.0833C42.4416 10.453 42.1318 9.61989 42.1596 8.76339C42.148 8.03953 42.3741 7.33184 42.8033 6.7488C43.259 6.14296 43.8667 5.66831 44.5649 5.37295C45.3658 5.02823 46.2308 4.85774 47.1027 4.8728C48.4343 4.8728 49.4815 5.16472 50.2441 5.74855C51.0092 6.33611 51.5765 7.14344 51.8699 8.06241Z" fill="var(--fill-0, white)"/>
<path id="Shape_2" d="M56.2867 2.804C55.8996 2.81057 55.5258 2.66235 55.2483 2.39224C54.9718 2.13723 54.8145 1.77819 54.8145 1.40202C54.8145 1.02585 54.9718 0.666819 55.2483 0.411804C55.8322 -0.137268 56.7424 -0.137268 57.3263 0.411804C57.6028 0.666812 57.7601 1.02585 57.7601 1.40202C57.7601 1.7782 57.6028 2.13723 57.3263 2.39224C57.0485 2.66257 56.6743 2.81079 56.2867 2.804ZM55.2353 18.5109V5.04757H57.3041V18.5109H55.2353Z" fill="var(--fill-0, white)"/>
<path id="Shape_3" d="M66.5595 18.7901C64.2828 18.8579 62.1848 17.5622 61.2258 15.4961C60.693 14.3554 60.4308 13.1072 60.4596 11.8485C60.4305 10.5821 60.6927 9.32596 61.2258 8.1769C62.2015 6.11521 64.2782 4.80055 66.5591 4.80055C68.84 4.80055 70.9166 6.11521 71.8923 8.1769C72.4258 9.32588 72.6883 10.5821 72.6596 11.8485C72.688 13.1072 72.4254 14.3555 71.8923 15.4961C70.9341 17.5623 68.8362 18.8582 66.5596 18.7901H66.5595ZM66.5595 16.9322C67.3781 16.9652 68.183 16.7148 68.8382 16.2231C69.4441 15.7352 69.9023 15.0884 70.1619 14.3551C70.7336 12.7302 70.7336 10.9587 70.1619 9.33374C69.9031 8.59552 69.445 7.9434 68.8382 7.4497C67.4704 6.49096 65.6487 6.49096 64.2808 7.4497C63.6738 7.94312 63.2155 8.59533 62.9572 9.33374C62.3841 10.9585 62.3841 12.7304 62.9572 14.3551C63.2163 15.0886 63.6747 15.7354 64.2808 16.2231C64.9361 16.7148 65.741 16.9652 66.5595 16.9322Z" fill="var(--fill-0, white)"/>
<path id="Path_3" d="M77.8838 10.4124V18.5109H75.8149V5.04757H77.8135V7.15053H77.9882C78.2992 6.47357 78.7984 5.90041 79.4263 5.49949C80.0691 5.0817 80.8986 4.8728 81.915 4.8728C82.7468 4.85354 83.5701 5.04493 84.3081 5.42919C85.0018 5.81076 85.5593 6.39912 85.9029 7.11236C86.312 8.00302 86.507 8.977 86.4724 9.95647V18.5109H84.4046V10.0971C84.4046 9.03856 84.1297 8.21304 83.58 7.62052C83.0307 7.028 82.2772 6.73141 81.3194 6.73074C80.7034 6.71941 80.0949 6.86747 79.5529 7.16056C79.0318 7.45002 78.6069 7.88574 78.3307 8.41391C78.0164 9.03204 77.8627 9.7193 77.8838 10.4124Z" fill="var(--fill-0, white)"/>
<path id="Path_4" d="M11.5171 3.3644C11.0748 2.49627 10.3798 1.78264 9.52362 1.31767C8.62579 0.813514 7.47321 0.561106 6.0659 0.560448H0V6.93059L2.17425 9.10485V2.48867H5.99555C6.97071 2.48867 7.75371 2.65069 8.34454 2.97472C8.9056 3.27032 9.35587 3.73962 9.62801 4.31243C10.1596 5.54434 10.1596 6.94097 9.62801 8.17288C9.35657 8.74755 8.91007 9.22148 8.35258 9.52665C7.76913 9.86007 6.99517 10.0268 6.03069 10.0268H0V18.5109H2.17425V11.955H6.101C7.49694 11.955 8.64214 11.6992 9.53659 11.1877C10.392 10.7164 11.0841 9.99638 11.521 9.12293C11.9584 8.22579 12.1792 7.2386 12.1658 6.24065C12.1795 5.24414 11.9572 4.25853 11.5171 3.3644Z" fill="var(--fill-0, white)"/>
<path id="Path_5" d="M108.751 23.5243C108.436 23.5277 108.122 23.4995 107.813 23.4399C107.617 23.4089 107.425 23.3549 107.242 23.2792L107.769 21.4555C108.522 21.6483 109.15 21.6436 109.653 21.4414C110.155 21.2406 110.59 20.6373 110.958 19.6317L111.344 18.5812L106.367 5.04757H108.61L112.326 15.7753H112.467L116.182 5.04757L118.444 5.08372L112.712 20.4732C112.491 21.0915 112.168 21.668 111.756 22.1785C111.4 22.6121 110.949 22.9584 110.438 23.1908C109.905 23.419 109.33 23.5327 108.751 23.5243Z" fill="var(--fill-0, white)"/>
<path id="Path_6" d="M123.021 10.4124V18.5109H120.953V5.04757H122.951V7.15053H123.126C123.437 6.47335 123.936 5.90011 124.564 5.49949C125.207 5.0817 126.036 4.8728 127.053 4.8728C127.884 4.85343 128.707 5.04483 129.445 5.42919C130.139 5.81047 130.696 6.39891 131.04 7.11236C131.449 8.00292 131.644 8.97692 131.61 9.95647V18.5109H129.541V10.0971C129.541 9.03856 129.267 8.21304 128.718 7.62052C128.167 7.028 127.413 6.73141 126.456 6.73074C125.84 6.71929 125.232 6.86736 124.691 7.16056C124.169 7.44997 123.744 7.88567 123.467 8.41391C123.154 9.0323 123.001 9.71944 123.021 10.4124Z" fill="var(--fill-0, white)"/>
<path id="Shape_4" d="M139.233 18.8263C138.432 18.8372 137.64 18.6712 136.911 18.3402C135.476 17.7051 134.575 16.2566 134.641 14.6886C134.612 14.0314 134.77 13.3793 135.097 12.8086C135.397 12.3304 135.816 11.9391 136.314 11.6738C136.845 11.3908 137.413 11.1826 138.001 11.0551C138.618 10.9186 139.239 10.8094 139.863 10.7278C140.683 10.6213 141.346 10.543 141.858 10.4867C142.247 10.464 142.628 10.3672 142.981 10.2015C143.223 10.0548 143.36 9.78261 143.334 9.50053V9.43023C143.334 8.56655 143.099 7.89435 142.629 7.41364C142.159 6.93559 141.448 6.69657 140.496 6.69659C139.508 6.69659 138.733 6.91217 138.172 7.34333C137.673 7.70457 137.268 8.17971 136.989 8.72924L135.027 8.02825C135.325 7.28055 135.809 6.62113 136.433 6.11209C137.003 5.66234 137.659 5.33422 138.361 5.14799C139.035 4.96814 139.729 4.87565 140.426 4.8728C140.927 4.87936 141.428 4.93042 141.92 5.0254C142.5 5.13433 143.055 5.3466 143.559 5.65206C144.119 6.00154 144.574 6.4956 144.877 7.08215C145.228 7.71887 145.404 8.57184 145.403 9.64105V18.5109H143.334V16.6871H143.23C143.048 17.0356 142.812 17.3524 142.529 17.6251C142.153 17.9903 141.709 18.2789 141.223 18.4747C140.59 18.7258 139.913 18.8454 139.233 18.8263ZM139.548 16.9684C140.269 16.9915 140.984 16.8253 141.621 16.4863C142.153 16.1958 142.596 15.7651 142.9 15.2409C143.184 14.7542 143.333 14.2012 143.334 13.6381V11.744C143.173 11.8888 142.975 11.9873 142.762 12.0292C142.427 12.1218 142.087 12.1949 141.743 12.2481C141.362 12.3084 140.99 12.3626 140.631 12.4048C140.271 12.449 139.98 12.4871 139.759 12.5153C139.249 12.5793 138.745 12.6923 138.257 12.8527C137.829 12.9836 137.442 13.2222 137.134 13.5456C136.836 13.8915 136.683 14.3392 136.708 14.795C136.673 15.44 136.977 16.0565 137.511 16.4199C138.118 16.8061 138.829 16.9974 139.548 16.9684Z" fill="var(--fill-0, white)"/>
<path id="Path_7" d="M149.452 18.5109V5.04757H151.45V7.15053H151.625C151.885 6.45919 152.362 5.87075 152.985 5.47337C153.661 5.05914 154.444 4.85049 155.236 4.8728C156.021 4.84421 156.795 5.05357 157.458 5.47337C158.068 5.89277 158.549 6.47344 158.848 7.15053H158.988C159.332 6.4577 159.871 5.88086 160.539 5.49146C161.294 5.06177 162.152 4.84776 163.02 4.8728C164.117 4.83158 165.183 5.23836 165.974 5.99962C166.739 6.75082 167.122 7.9178 167.121 9.50053V18.5109H165.054V9.50053C165.054 8.5063 164.783 7.7966 164.239 7.37145C163.692 6.94278 163.014 6.71642 162.319 6.73074C161.373 6.73074 160.64 7.01528 160.119 7.58436C159.59 8.17734 159.311 8.95146 159.338 9.74558V18.5109H157.235V9.28964C157.263 8.59349 156.992 7.91852 156.49 7.43574C155.969 6.9564 155.279 6.70292 154.572 6.73074C154.04 6.72881 153.518 6.87785 153.067 7.16056C152.597 7.45289 152.211 7.86185 151.946 8.34765C151.655 8.88403 151.508 9.4869 151.521 10.0971V18.5109H149.452Z" fill="var(--fill-0, white)"/>
<path id="Shape_5" d="M171.96 2.804C171.572 2.81075 171.199 2.66251 170.921 2.39224C170.645 2.13723 170.487 1.7782 170.487 1.40202C170.487 1.02585 170.645 0.666812 170.921 0.411804C171.505 -0.1372 172.415 -0.1372 172.998 0.411804C173.275 0.666812 173.432 1.02585 173.432 1.40202C173.432 1.7782 173.275 2.13723 172.998 2.39224C172.721 2.66251 172.347 2.81075 171.96 2.804ZM170.907 18.5109V5.04757H172.976V18.5109H170.907Z" fill="var(--fill-0, white)"/>
<path id="Path_8" d="M182.231 18.7901C179.925 18.8759 177.8 17.5458 176.869 15.4339C176.36 14.3083 176.108 13.0836 176.131 11.8486C176.106 10.5989 176.366 9.3598 176.891 8.22519C177.355 7.22289 178.089 6.37004 179.012 5.76269C179.962 5.15769 181.071 4.84805 182.197 4.87289C183.078 4.85897 183.952 5.03861 184.756 5.39914C185.49 5.72884 186.131 6.23456 186.622 6.87142C187.113 7.51448 187.425 8.27611 187.526 9.07884H185.457C185.283 8.44056 184.918 7.87078 184.411 7.44589C183.868 6.96985 183.142 6.73151 182.231 6.73085C181.478 6.71515 180.738 6.93415 180.114 7.35752C179.489 7.80103 179 8.4114 178.704 9.11907C178.352 9.96046 178.18 10.8664 178.2 11.7784C178.18 12.7083 178.348 13.6328 178.694 14.4959C178.985 15.2148 179.471 15.8376 180.098 16.2936C180.724 16.726 181.471 16.9495 182.231 16.9323C182.733 16.9396 183.232 16.8447 183.696 16.6531C184.124 16.4735 184.505 16.1971 184.808 15.8457C185.12 15.4812 185.342 15.0493 185.457 14.5843H187.526C187.305 16.1739 186.298 17.5455 184.849 18.2338C184.031 18.6196 183.135 18.8101 182.231 18.7901Z" fill="var(--fill-0, white)"/>
<path id="Path_9" d="M199.751 8.06241L197.893 8.58865C197.767 8.26271 197.595 7.95686 197.381 7.68077C197.135 7.37031 196.822 7.12021 196.465 6.94967C196 6.74061 195.494 6.64163 194.985 6.66043C194.257 6.63277 193.539 6.8306 192.928 7.22685C192.423 7.52847 192.113 8.07126 192.108 8.65894C192.089 9.13207 192.298 9.58563 192.671 9.87813C193.197 10.2435 193.793 10.4965 194.422 10.6213L196.421 11.1134C197.624 11.4047 198.521 11.8499 199.112 12.4491C199.71 13.0663 200.029 13.9005 199.998 14.7589C200.007 15.5021 199.774 16.2281 199.335 16.8278C198.859 17.4625 198.223 17.9589 197.491 18.2659C196.62 18.6314 195.682 18.81 194.737 18.7901C193.366 18.7901 192.229 18.4922 191.329 17.8963C190.426 17.2968 189.808 16.3529 189.62 15.2852L191.584 14.7951C191.725 15.451 192.105 16.0314 192.649 16.424C193.261 16.8125 193.979 17.0026 194.703 16.9684C195.667 16.9684 196.434 16.7621 197.003 16.3497C197.574 15.9379 197.859 15.4425 197.859 14.8634C197.868 14.4197 197.69 13.9926 197.369 13.6864C196.939 13.3167 196.418 13.0696 195.86 12.9713L193.617 12.4451C192.383 12.1538 191.479 11.6999 190.903 11.0833C190.323 10.4527 190.014 9.61969 190.041 8.76339C190.03 8.03963 190.255 7.33193 190.684 6.7488C191.14 6.14296 191.748 5.66831 192.446 5.37295C193.247 5.02813 194.112 4.85765 194.985 4.8728C196.316 4.8728 197.363 5.16472 198.126 5.74855C198.891 6.33617 199.458 7.14352 199.751 8.06241Z" fill="var(--fill-0, white)"/>
<path id="Path_10" d="M103.643 4.71011C103.024 3.4214 102.031 2.34953 100.793 1.63502C99.5551 0.917965 98.0651 0.559775 96.3233 0.560447H90.5387V7.02473L92.7129 9.19918V2.48867H96.1837C97.5857 2.48867 98.757 2.77053 99.6977 3.33426C100.64 3.89936 101.381 4.74494 101.819 5.75257C102.319 6.93732 102.561 8.21497 102.529 9.50053C102.561 10.7967 102.316 12.0847 101.811 13.2786C101.359 14.3034 100.596 15.159 99.6283 15.723C98.6522 16.2955 97.4219 16.582 95.9376 16.5827H92.713V10.0268H90.5387V18.5109H96.0783C97.9011 18.5109 99.4493 18.1501 100.723 17.4283C101.989 16.7169 103.005 15.6335 103.633 14.3251C104.3 12.9793 104.634 11.3711 104.634 9.50044C104.634 7.64257 104.303 6.0458 103.643 4.71011Z" fill="var(--fill-0, white)"/>
</g>
</svg>
