<svg preserveAspectRatio="none" width="100%" height="100%" overflow="visible" style="display: block;" viewBox="0 0 24 24" fill="none" xmlns="http://www.w3.org/2000/svg">
<g id="folder_match">
<mask id="mask0_2021_973" style="mask-type:alpha" maskUnits="userSpaceOnUse" x="0" y="0" width="24" height="24">
<rect id="Bounding box" width="24" height="24" fill="var(--fill-0, #D9D9D9)"/>
</mask>
<g mask="url(#mask0_2021_973)">
<path id="folder_match_2" d="M5.75 17C5.41667 16.6 5.1375 16.1708 4.9125 15.7125C4.6875 15.2542 4.5 14.775 4.35 14.275C4.26667 14.0083 4.3 13.7708 4.45 13.5625C4.6 13.3542 4.81667 13.225 5.1 13.175C5.38333 13.125 5.6375 13.175 5.8625 13.325C6.0875 13.475 6.24167 13.6833 6.325 13.95C6.40833 14.2167 6.5125 14.4708 6.6375 14.7125C6.7625 14.9542 6.90833 15.1917 7.075 15.425C7.24167 15.6583 7.41667 15.8708 7.6 16.0625C7.78333 16.2542 7.98333 16.4417 8.2 16.625C8.41667 16.8083 8.55417 17.0333 8.6125 17.3C8.67083 17.5667 8.63333 17.8167 8.5 18.05C8.36667 18.2833 8.16667 18.4375 7.9 18.5125C7.63333 18.5875 7.39167 18.5417 7.175 18.375C6.90833 18.175 6.65417 17.9583 6.4125 17.725C6.17083 17.4917 5.95 17.25 5.75 17ZM12.5 22C12.0833 22 11.7292 21.8542 11.4375 21.5625C11.1458 21.2708 11 20.9167 11 20.5V14.5C11 14.0833 11.1458 13.7292 11.4375 13.4375C11.7292 13.1458 12.0833 13 12.5 13H14.7C14.95 13 15.1875 13.0583 15.4125 13.175C15.6375 13.2917 15.8167 13.4583 15.95 13.675L16.5 14.5H20.5C20.9167 14.5 21.2708 14.6458 21.5625 14.9375C21.8542 15.2292 22 15.5833 22 16V20.5C22 20.9167 21.8542 21.2708 21.5625 21.5625C21.2708 21.8542 20.9167 22 20.5 22H12.5ZM3.5 11C3.08333 11 2.72917 10.8542 2.4375 10.5625C2.14583 10.2708 2 9.91667 2 9.5V3.5C2 3.08333 2.14583 2.72917 2.4375 2.4375C2.72917 2.14583 3.08333 2 3.5 2H5.7C5.95 2 6.1875 2.05833 6.4125 2.175C6.6375 2.29167 6.81667 2.45833 6.95 2.675L7.5 3.5H11.5C11.9167 3.5 12.2708 3.64583 12.5625 3.9375C12.8542 4.22917 13 4.58333 13 5V9.5C13 9.91667 12.8542 10.2708 12.5625 10.5625C12.2708 10.8542 11.9167 11 11.5 11H3.5ZM17.2 9C17.0167 8.68333 16.8083 8.39167 16.575 8.125C16.3417 7.85833 16.0833 7.60833 15.8 7.375C15.5833 7.19167 15.4458 6.96667 15.3875 6.7C15.3292 6.43333 15.3667 6.18333 15.5 5.95C15.6333 5.71667 15.8333 5.5625 16.1 5.4875C16.3667 5.4125 16.6083 5.45833 16.825 5.625C17.175 5.89167 17.5 6.18333 17.8 6.5C18.1 6.81667 18.375 7.15833 18.625 7.525C18.975 8.04167 19.2625 8.59583 19.4875 9.1875C19.7125 9.77917 19.8667 10.3917 19.95 11.025C19.9833 11.2917 19.9042 11.5208 19.7125 11.7125C19.5208 11.9042 19.2833 12 19 12C18.7167 12 18.4792 11.9083 18.2875 11.725C18.0958 11.5417 17.975 11.3083 17.925 11.025C17.8583 10.6583 17.7667 10.3083 17.65 9.975C17.5333 9.64167 17.3833 9.31667 17.2 9ZM13 20H20V16.5H15.425L14.425 15H13V20ZM4 9H11V5.5H6.425L5.425 4H4V9Z" fill="var(--fill-0, #043779)"/>
</g>
</g>
</svg>
