<svg preserveAspectRatio="none" width="100%" height="100%" overflow="visible" style="display: block;" viewBox="0 0 105.867 32" fill="none" xmlns="http://www.w3.org/2000/svg">
<g id="leuthard" clip-path="url(#clip0_2021_851)">
<path id="Vector" d="M105.867 0H0V32H105.867V0Z" fill="var(--fill-0, #FFE500)"/>
<g id="Group">
<path id="Vector_2" d="M72.0844 21.7305V10.0766C72.1467 10.0766 72.1965 10.0766 72.2588 10.0766C74.002 10.0766 75.7329 10.0766 77.4761 10.0766C78.41 10.0766 79.3066 10.2128 80.1533 10.5986C81.274 11.1206 81.9215 11.9603 82.1207 13.0723C82.2702 13.878 82.2328 14.6837 81.8966 15.4553C81.4359 16.5106 80.5891 17.1915 79.3688 17.4411C79.3315 17.4525 79.2941 17.4638 79.2319 17.4752C80.6638 19.1773 82.0834 20.8794 83.5278 22.6042C83.4406 22.6042 83.3908 22.6156 83.341 22.6156H79.2443C79.1198 22.6156 79.0451 22.5702 78.9828 22.4794C77.9244 20.9589 76.8535 19.4383 75.7827 17.9177C75.7578 17.8837 75.7329 17.8496 75.6706 17.8156V22.4113C75.6706 22.5399 75.6 22.6042 75.4589 22.6042H68.7847C68.6477 22.6042 68.5854 22.5589 68.5481 22.4454C68.299 21.8099 68.0251 21.1745 67.7761 20.539C67.7387 20.4369 67.6889 20.4142 67.5768 20.4142H62.9696C62.8451 20.4142 62.7953 20.4596 62.7579 20.5503C62.484 21.1972 62.1976 21.8326 61.9236 22.4794C61.8863 22.5702 61.8365 22.6042 61.7244 22.6042H54.9754C54.9256 22.6042 54.8883 22.6042 54.826 22.5929V17.4865C54.7513 17.4865 54.7015 17.4752 54.6517 17.4752H49.8577C49.6958 17.4752 49.6709 17.5206 49.6709 17.6567V22.5929H46.1096V12.834H43.2955V22.4113C43.2955 22.5399 43.2249 22.6042 43.0838 22.6042H39.7342V12.834H36.9699C36.9699 12.8908 36.9574 12.9475 36.9574 13.0042V17.5092C36.9574 18.2014 36.9201 18.8936 36.7333 19.5745C36.3099 21.1177 35.2142 22.0823 33.5954 22.5702C32.5494 22.8879 31.4786 22.9787 30.3828 22.9106C29.4862 22.8539 28.6146 22.7064 27.7803 22.3546C26.3733 21.7759 25.5265 20.7886 25.2028 19.4156C25.0533 18.8142 25.016 18.2014 25.016 17.5886V10.0652H28.5648C28.5648 10.1333 28.5773 10.2128 28.5773 10.2808V16.817C28.5773 17.3617 28.5897 17.9177 28.7391 18.4511C28.8636 18.9277 29.0878 19.3702 29.5361 19.6766C29.8847 19.9149 30.2707 20.0057 30.6941 20.0397C31.1299 20.0738 31.5657 20.0511 31.9891 19.9035C32.6366 19.6879 32.9977 19.234 33.1845 18.6553C33.3464 18.156 33.3962 17.634 33.3962 17.112C33.3962 14.8312 33.4086 12.5503 33.4086 10.2581V10.0652H49.6709V14.7064C49.6709 14.835 49.7415 14.8993 49.8826 14.8993H54.8136C54.8136 14.8312 54.826 14.7745 54.826 14.7064V10.2355C54.826 10.1068 54.8966 10.0425 55.0377 10.0425H58.3873V21.7532H58.4246C58.4371 21.7191 58.462 21.6851 58.4744 21.6511C60.0807 17.8269 61.6995 14.0142 63.2933 10.1901C63.3432 10.0766 63.4054 10.0312 63.5424 10.0425H67.0787C67.2157 10.0425 67.278 10.0766 67.3278 10.1901C68.8096 13.7872 70.2914 17.373 71.7731 20.9702C71.8728 21.2198 71.9724 21.4581 72.072 21.7078C72.0595 21.7418 72.072 21.7418 72.072 21.7418L72.0844 21.7305ZM75.6582 14.1163V15.5461C75.6582 15.6482 75.6831 15.6823 75.8076 15.6823C76.2185 15.6482 76.6294 15.6482 77.0403 15.5915C77.9493 15.4667 78.4225 15.0014 78.4848 14.2298C78.547 13.4695 78.161 12.9589 77.3765 12.7206C76.8785 12.573 76.3555 12.5617 75.8325 12.5617C75.3095 12.5617 75.6706 12.5957 75.6706 12.7092C75.6706 13.1745 75.6706 13.6511 75.6706 14.1163H75.6582ZM66.7301 17.9291C66.2445 16.6014 65.7713 15.2964 65.2857 13.9801H65.2483C64.7627 15.2964 64.2771 16.6014 63.7914 17.9291H66.7301Z" fill="var(--fill-0, black)"/>
<path id="Vector_3" d="M24.2438 12.8341H20.0226V14.9447H24.0196V17.7135H20.0226V19.8582H24.0695C24.2189 19.8582 24.2687 19.8922 24.2562 20.0284C24.2438 20.8341 24.2562 21.6397 24.2562 22.4568V22.6156H8.8656V10.088H12.2276C12.3604 10.088 12.4269 10.1485 12.4269 10.2695V19.8582H16.4488V10.0993H24.2562C24.2562 10.9958 24.2562 11.9036 24.2562 12.8341H24.2438Z" fill="var(--fill-0, black)"/>
<path id="Vector_4" d="M83.8016 22.6156V10.0766H83.976C85.657 10.0766 87.338 10.0539 89.0066 10.0766C92.2441 10.122 95.0707 12.1418 95.6933 15.0808C96.1415 17.1574 95.5812 19.0071 93.9998 20.5844C92.9414 21.6283 91.6339 22.2638 90.0899 22.5021C89.6042 22.5815 89.1062 22.6042 88.6081 22.6042C87.064 22.6156 85.5325 22.6042 83.9884 22.6042C83.9511 22.6156 83.8763 22.6156 83.8016 22.6156ZM87.3504 12.8454V19.756C87.3504 19.8241 87.3753 19.8581 87.4501 19.8581C88.0976 19.8581 88.7575 19.8695 89.3926 19.722C90.6004 19.4383 91.472 18.8142 91.883 17.7248C92.1569 17.0213 92.1818 16.295 92.0448 15.5688C91.8207 14.4567 91.1732 13.6397 90.0276 13.1744C89.1809 12.8113 88.2843 12.8113 87.3504 12.8454Z" fill="var(--fill-0, black)"/>
<path id="Vector_5" d="M95.4816 11.8354C94.6348 11.8354 93.95 11.234 93.9375 10.4624C93.9375 9.70211 94.5975 9.06665 95.4193 9.06665C96.2909 9.06665 96.9883 9.64537 96.9883 10.3943C97.0132 11.2113 96.3781 11.8241 95.4816 11.8354ZM96.7517 10.451C96.7517 9.80424 96.1789 9.28225 95.4691 9.28225C94.7594 9.28225 94.1866 9.80424 94.1866 10.417C94.1866 11.0298 94.7594 11.6085 95.4816 11.6085C96.1789 11.6198 96.7517 11.0865 96.7517 10.451Z" fill="var(--fill-0, black)"/>
<path id="Vector_6" d="M96.1912 11.1773C95.9297 11.2227 95.9173 11.2114 95.7927 11.0411C95.6807 10.8823 95.5686 10.7348 95.4565 10.5759C95.3818 10.4738 95.2822 10.4965 95.195 10.5192C95.1701 10.5192 95.1452 10.6099 95.1452 10.6667C95.1452 10.8369 95.1452 11.0071 95.1452 11.2H94.8962V9.67944C95.2324 9.67944 95.5686 9.67944 95.9048 9.72483C96.1414 9.74753 96.2161 9.89505 96.2161 10.1106C96.2161 10.3263 96.104 10.4397 95.8924 10.4965C95.8425 10.4965 95.7927 10.5192 95.718 10.5305C95.8924 10.7461 96.0418 10.9617 96.1912 11.1773ZM95.469 10.2809C95.5811 10.2809 95.6931 10.2809 95.7927 10.2582C95.9048 10.2582 95.9795 10.1901 95.9795 10.0766C95.9795 9.96313 95.8924 9.92909 95.7927 9.91774C95.6184 9.91774 95.4441 9.91774 95.2698 9.89505C95.1701 9.89505 95.1452 9.92909 95.1452 10.0199C95.1452 10.3036 95.1079 10.2695 95.4192 10.2809C95.4316 10.2809 95.4565 10.2809 95.469 10.2809Z" fill="var(--fill-0, black)"/>
</g>
<g id="Group_2">
<path id="Vector_7" d="M12.427 19.8468H16.7105V22.6043H8.85331V10.088H12.427V19.8468Z" fill="var(--fill-0, black)"/>
<path id="Vector_8" d="M20.0727 12.8341V14.922H24.0947V17.6795H20.0727V19.8355H24.3188V22.5929H16.499V10.088H24.3188V12.8454H20.0727V12.8341Z" fill="var(--fill-0, black)"/>
<path id="Vector_9" d="M37.0696 10.088V17.1234C37.0696 18.7348 36.9949 20.3234 35.6251 21.5376C34.4796 22.5702 32.674 22.9334 31.0677 22.9334C29.4614 22.9334 27.6559 22.5702 26.5103 21.5376C25.1406 20.3234 25.0659 18.7348 25.0659 17.1234V10.088H28.6396V16.6809C28.6396 18.3036 28.7641 20.0851 31.0677 20.0851C33.3713 20.0851 33.4959 18.3036 33.4959 16.6809V10.088H37.0696Z" fill="var(--fill-0, black)"/>
<path id="Vector_10" d="M43.2456 22.6043H39.6719V12.8454H36.7208V10.088H46.1968V12.8454H43.2456V22.6043Z" fill="var(--fill-0, black)"/>
<path id="Vector_11" d="M54.6641 14.9107V10.088H58.2378V22.6043H54.6641V17.4752H49.509V22.6043H45.9477V10.088H49.5214V14.922H54.6641V14.9107Z" fill="var(--fill-0, black)"/>
<path id="Vector_12" d="M62.6957 20.4256L61.7494 22.6043H57.964L63.2436 10.088H67.1411L72.3087 22.6043H68.4984L67.6143 20.4256H62.6957ZM65.1986 13.9461H65.1612L63.6794 17.9291H66.643L65.1986 13.9461Z" fill="var(--fill-0, black)"/>
<path id="Vector_13" d="M83.4906 22.6043H79.0452L75.6708 17.7929H75.6334V22.6043H72.0597V10.088H77.4016C80.1161 10.088 82.1707 11.2681 82.1707 13.9348C82.1707 16.6014 81.1123 17.1575 79.1698 17.4752L83.4906 22.6043ZM75.6334 15.6936H75.9821C77.1525 15.6936 78.46 15.4894 78.46 14.1277C78.46 12.766 77.1525 12.5617 75.9821 12.5617H75.6334V15.6936Z" fill="var(--fill-0, black)"/>
<path id="Vector_14" d="M83.8142 10.088H88.8822C92.705 10.088 95.8553 12.8227 95.8553 16.3518C95.8553 19.8809 92.6801 22.6156 88.8822 22.6156H83.8142V10.088ZM87.388 19.8468H88.1849C90.3142 19.8468 92.1322 18.7802 92.1322 16.3405C92.1322 13.9007 90.5134 12.8341 88.2098 12.8341H87.3755V19.8468H87.388Z" fill="var(--fill-0, black)"/>
<path id="Vector_15" d="M93.9751 10.451C93.9751 9.67942 94.6475 9.06665 95.4942 9.06665C96.3409 9.06665 97.0133 9.67942 97.0133 10.451C97.0133 11.2227 96.3409 11.8354 95.4942 11.8354C94.6475 11.8354 93.9751 11.2113 93.9751 10.451ZM96.7767 10.451C96.7767 9.80424 96.179 9.28225 95.4817 9.28225C94.7844 9.28225 94.1867 9.80424 94.1867 10.451C94.1867 11.0979 94.7844 11.6198 95.4817 11.6198C96.179 11.6198 96.7767 11.0979 96.7767 10.451ZM96.2164 11.1886H95.9425L95.4444 10.4964H95.1704V11.1886H94.9339V9.67942H95.6561C95.9549 9.67942 96.2413 9.75885 96.2413 10.0766C96.2413 10.3943 96.0172 10.4851 95.7183 10.4851L96.2164 11.1886ZM95.4319 10.2808C95.6436 10.2808 96.0047 10.3149 96.0047 10.0766C96.0047 9.83828 95.7806 9.89502 95.6063 9.89502H95.158V10.2808H95.4319Z" fill="var(--fill-0, black)"/>
</g>
</g>
<defs>
<clipPath id="clip0_2021_851">
<rect width="105.867" height="32" fill="white"/>
</clipPath>
</defs>
</svg>
