<svg preserveAspectRatio="none" width="100%" height="100%" overflow="visible" style="display: block;" viewBox="0 0 95.3308 31.8474" fill="none" xmlns="http://www.w3.org/2000/svg">
<g id="logo">
<path id="Fill-1" fill-rule="evenodd" clip-rule="evenodd" d="M21.4526 13.1274H26.5815C29.7691 13.1274 31.0084 14.395 31.0084 16.6648C31.0084 18.9048 29.7879 20.4199 26.5349 20.4199H23.9567V24.2668H21.4526V13.1274ZM26.4973 18.6237C27.9103 18.6237 28.5232 18.1116 28.5232 16.7771C28.5232 15.4272 27.9103 14.938 26.4973 14.938H23.9567V18.6237H26.4973Z" fill="var(--fill-0, #D02C30)"/>
<path id="Fill-3" fill-rule="evenodd" clip-rule="evenodd" d="M31.9962 15.925L33.9393 15.7902L34.1544 16.6335C34.6044 16.1142 35.3651 15.73 37.1022 15.73V17.5925C34.6218 17.6153 34.4627 18.7177 34.4627 20.0442V24.2667H31.9962V15.925Z" fill="var(--fill-0, #D02C30)"/>
<path id="Fill-5" fill-rule="evenodd" clip-rule="evenodd" d="M37.5298 20.0135C37.5298 17.4225 38.3528 15.655 42.0402 15.655C45.7464 15.655 46.5416 17.4526 46.5416 20.0135C46.5416 22.672 45.7464 24.3943 42.0402 24.3943C38.3904 24.3943 37.5298 22.6344 37.5298 20.0135ZM44.0654 20.081C44.0654 18.5071 43.8681 17.4949 42.0402 17.4949C40.2221 17.4949 40.015 18.5071 40.015 20.081C40.015 21.6398 40.2221 22.6739 42.0402 22.6739C43.8681 22.6739 44.0654 21.6398 44.0654 20.081Z" fill="var(--fill-0, #D02C30)"/>
<path id="Fill-7" fill-rule="evenodd" clip-rule="evenodd" d="M47.6593 13.1274H52.7882C55.9758 13.1274 57.2151 14.395 57.2151 16.6648C57.2151 18.9048 55.9946 20.4199 52.7416 20.4199H50.1634V24.2668H47.6593V13.1274ZM52.704 18.6237C54.117 18.6237 54.7299 18.1116 54.7299 16.7771C54.7299 15.4272 54.117 14.938 52.704 14.938H50.1634V18.6237H52.704Z" fill="var(--fill-0, #D02C30)"/>
<path id="Fill-9" fill-rule="evenodd" clip-rule="evenodd" d="M58.1574 20.919V15.8052H60.6336V20.8142C60.6336 22.0635 60.7286 22.6366 62.348 22.6366C63.911 22.6366 64.0436 22.0562 64.0436 20.7992V15.8052H66.4634V20.919C66.4634 23.3498 65.7148 24.3871 62.3104 24.3871C58.9811 24.3871 58.1574 23.3498 58.1574 20.919Z" fill="var(--fill-0, #D02C30)"/>
<path id="Fill-11" fill-rule="evenodd" clip-rule="evenodd" d="M67.8097 13.1274H70.2483V16.4982C70.7544 15.9193 71.6366 15.6476 73.1791 15.6476C76.3235 15.6476 76.7081 17.7068 76.7081 20.0137C76.7081 22.3654 76.249 24.3722 73.0858 24.3722C71.0575 24.3722 70.5682 24.0704 69.9776 23.5662L69.6038 24.3415L67.8097 24.2072V13.1274ZM74.2228 20.1034C74.2228 18.4699 74.0157 17.4951 72.3577 17.4951C70.4916 17.4951 70.2668 18.4922 70.2668 20.1034C70.2668 21.707 70.4638 22.659 72.3577 22.659C73.9691 22.659 74.2228 21.7443 74.2228 20.1034Z" fill="var(--fill-0, #D02C30)"/>
<path id="Fill-13" fill-rule="evenodd" clip-rule="evenodd" d="M80.571 24.2892C78.6568 24.2892 77.8445 23.793 77.8445 22.0096V13.1318H80.302V21.7483C80.302 22.4024 80.3674 22.5537 81.4585 22.5537V24.2669C81.3457 24.2819 81.0847 24.2892 80.571 24.2892Z" fill="var(--fill-0, #D02C30)"/>
<g id="Mask group">
<mask id="mask0_2021_870" style="mask-type:luminance" maskUnits="userSpaceOnUse" x="0" y="0" width="96" height="32">
<g id="Group">
<path id="Vector" d="M0 31.8474H95.3308V0H0V31.8474Z" fill="var(--fill-0, white)"/>
</g>
</mask>
<g mask="url(#mask0_2021_870)">
<path id="Fill-15" fill-rule="evenodd" clip-rule="evenodd" d="M82.5407 15.067H85.0165V13.1318H82.5407V15.067Z" fill="var(--fill-0, #D22D2B)"/>
</g>
</g>
<g id="Mask group_2">
<mask id="mask1_2021_870" style="mask-type:luminance" maskUnits="userSpaceOnUse" x="0" y="0" width="96" height="32">
<g id="Group_2">
<path id="Vector_2" d="M0 31.8474H95.3308V0H0V31.8474Z" fill="var(--fill-0, white)"/>
</g>
</mask>
<g mask="url(#mask1_2021_870)">
<path id="Fill-17" fill-rule="evenodd" clip-rule="evenodd" d="M82.5407 24.2668H84.9977V15.8053H82.5407V24.2668Z" fill="var(--fill-0, #D02C30)"/>
</g>
</g>
<g id="Mask group_3">
<mask id="mask2_2021_870" style="mask-type:luminance" maskUnits="userSpaceOnUse" x="0" y="0" width="96" height="32">
<g id="Group_3">
<path id="Vector_3" d="M0 31.8474H95.3308V0H0V31.8474Z" fill="var(--fill-0, white)"/>
</g>
</mask>
<g mask="url(#mask2_2021_870)">
<path id="Fill-18" fill-rule="evenodd" clip-rule="evenodd" d="M86.3854 20.0135C86.3854 17.3236 87.173 15.655 90.8492 15.655C92.1223 15.655 92.9579 15.8275 93.6616 16.098L92.5872 17.8034C92.1261 17.6075 91.6183 17.4949 90.9703 17.4949C89.3495 17.4949 88.8895 18.2661 88.8895 20.0732C88.8895 21.8802 89.3123 22.6739 91.0169 22.6739C91.7596 22.6739 92.3238 22.5009 92.8493 22.3129L93.7841 23.8162C92.7348 24.2213 91.9378 24.3871 90.6995 24.3871C87.2099 24.3871 86.3854 22.733 86.3854 20.0135Z" fill="var(--fill-0, #D02C30)"/>
</g>
</g>
<g id="Mask group_4">
<mask id="mask3_2021_870" style="mask-type:luminance" maskUnits="userSpaceOnUse" x="0" y="0" width="96" height="32">
<g id="Group_4">
<path id="Vector_4" d="M0 31.8474H95.3308V0H0V31.8474Z" fill="var(--fill-0, white)"/>
</g>
</mask>
<g mask="url(#mask3_2021_870)">
<path id="Fill-19" fill-rule="evenodd" clip-rule="evenodd" d="M21.4443 9.08819L21.4446 8.13802e-05H10.0916V3.02936H17.6602V9.08819C17.6602 9.08819 21.4429 9.08485 21.4443 9.08819Z" fill="var(--fill-0, #1A171B)"/>
</g>
</g>
<g id="Mask group_5">
<mask id="mask4_2021_870" style="mask-type:luminance" maskUnits="userSpaceOnUse" x="0" y="0" width="96" height="32">
<g id="Group_5">
<path id="Vector_5" d="M0 31.8474H95.3308V0H0V31.8474Z" fill="var(--fill-0, white)"/>
</g>
</mask>
<g mask="url(#mask4_2021_870)">
<path id="Fill-20" fill-rule="evenodd" clip-rule="evenodd" d="M16.3986 13.1274V4.03929L5.04588 4.03874V7.06857H12.6144V13.1274H16.3986Z" fill="var(--fill-0, #8D8C90)"/>
</g>
</g>
<g id="Mask group_6">
<mask id="mask5_2021_870" style="mask-type:luminance" maskUnits="userSpaceOnUse" x="0" y="0" width="96" height="32">
<g id="Group_6">
<path id="Vector_6" d="M0 31.8474H95.3308V0H0V31.8474Z" fill="var(--fill-0, white)"/>
</g>
</mask>
<g mask="url(#mask5_2021_870)">
<path id="Fill-21" fill-rule="evenodd" clip-rule="evenodd" d="M47.6749 29.7505V27.2926H48.4016V29.7003C48.4016 30.2573 48.5836 30.5331 49.3229 30.5331C50.0562 30.5331 50.2504 30.2673 50.2504 29.7003V27.2926H50.9523V29.7505C50.9523 30.5933 50.5824 31.0599 49.3166 31.0599C48.0633 31.0599 47.6749 30.5933 47.6749 29.7505Z" fill="var(--fill-0, #1B1C1F)"/>
</g>
</g>
<g id="Mask group_7">
<mask id="mask6_2021_870" style="mask-type:luminance" maskUnits="userSpaceOnUse" x="0" y="0" width="96" height="32">
<g id="Group_7">
<path id="Vector_7" d="M0 31.8474H95.3308V0H0V31.8474Z" fill="var(--fill-0, white)"/>
</g>
</mask>
<g mask="url(#mask6_2021_870)">
<path id="Fill-22" fill-rule="evenodd" clip-rule="evenodd" d="M51.9178 28.2406L52.4757 28.2005L52.5321 28.4562C52.6887 28.2757 52.9643 28.1554 53.5911 28.1554C54.4744 28.1554 54.6063 28.5819 54.6063 29.1837V31.0097H53.9043V29.3141C53.9043 28.9029 53.8479 28.6922 53.3339 28.6922C52.7137 28.6922 52.6198 28.963 52.6198 29.5147V31.0097H51.9178V28.2406Z" fill="var(--fill-0, #1B1C1F)"/>
</g>
</g>
<g id="Mask group_8">
<mask id="mask7_2021_870" style="mask-type:luminance" maskUnits="userSpaceOnUse" x="0" y="0" width="96" height="32">
<g id="Group_8">
<path id="Vector_8" d="M0 31.8474H95.3308V0H0V31.8474Z" fill="var(--fill-0, white)"/>
</g>
</mask>
<g mask="url(#mask7_2021_870)">
<path id="Fill-23" fill-rule="evenodd" clip-rule="evenodd" d="M55.3273 30.8491L55.5967 30.4128C55.8347 30.5081 56.1796 30.5833 56.5555 30.5833C56.8938 30.5833 57.0754 30.488 57.0754 30.2624C57.0754 30.0364 56.9004 29.9562 56.3675 29.7857C55.7661 29.5951 55.44 29.4146 55.44 28.9529C55.44 28.391 55.8977 28.1553 56.6181 28.1553C57.0754 28.1553 57.3389 28.2054 57.6145 28.3007L57.3389 28.7674C57.1447 28.7019 56.9004 28.647 56.5931 28.647C56.2297 28.647 56.1107 28.7523 56.1107 28.9379C56.1107 29.1335 56.2736 29.2137 56.7688 29.3692C57.4078 29.57 57.7336 29.7355 57.7336 30.2571C57.7336 30.799 57.3013 31.0447 56.5555 31.0447C56.0794 31.0447 55.6468 30.9795 55.3273 30.8491Z" fill="var(--fill-0, #1B1C1F)"/>
</g>
</g>
<g id="Mask group_9">
<mask id="mask8_2021_870" style="mask-type:luminance" maskUnits="userSpaceOnUse" x="0" y="0" width="96" height="32">
<g id="Group_9">
<path id="Vector_9" d="M0 31.8474H95.3308V0H0V31.8474Z" fill="var(--fill-0, white)"/>
</g>
</mask>
<g mask="url(#mask8_2021_870)">
<path id="Fill-24" fill-rule="evenodd" clip-rule="evenodd" d="M59.0882 29.3794H60.4291C60.4229 28.9227 60.4041 28.6519 59.8149 28.6519C59.2511 28.6519 59.1132 28.9127 59.0882 29.3794ZM58.4113 29.6C58.4113 28.7222 58.6932 28.1552 59.834 28.1552C61.081 28.1552 61.0873 28.7823 61.0747 29.8708H59.0882C59.1195 30.3325 59.2636 30.5632 59.8525 30.5632C60.3101 30.5632 60.5419 30.4779 60.7486 30.3977L61.018 30.8292C60.7298 30.9543 60.3728 31.0449 59.8149 31.0449C58.6368 31.0449 58.4113 30.493 58.4113 29.6Z" fill="var(--fill-0, #1B1C1F)"/>
</g>
</g>
<g id="Mask group_10">
<mask id="mask9_2021_870" style="mask-type:luminance" maskUnits="userSpaceOnUse" x="0" y="0" width="96" height="32">
<g id="Group_10">
<path id="Vector_10" d="M0 31.8474H95.3308V0H0V31.8474Z" fill="var(--fill-0, white)"/>
</g>
</mask>
<g mask="url(#mask9_2021_870)">
<path id="Fill-25" fill-rule="evenodd" clip-rule="evenodd" d="M61.9227 28.2406L62.4739 28.2005L62.5369 28.4964C62.681 28.3158 62.9379 28.1804 63.5145 28.1804V28.712C62.6748 28.7223 62.6246 29.1385 62.6246 29.6152V31.0097H61.9227V28.2406Z" fill="var(--fill-0, #1B1C1F)"/>
</g>
</g>
<g id="Mask group_11">
<mask id="mask10_2021_870" style="mask-type:luminance" maskUnits="userSpaceOnUse" x="0" y="0" width="96" height="32">
<g id="Group_11">
<path id="Vector_11" d="M0 31.8474H95.3308V0H0V31.8474Z" fill="var(--fill-0, white)"/>
</g>
</mask>
<g mask="url(#mask10_2021_870)">
<path id="Fill-26" fill-rule="evenodd" clip-rule="evenodd" d="M64.7625 29.3794H66.1035C66.0972 28.9227 66.0784 28.6519 65.4892 28.6519C64.9254 28.6519 64.7876 28.9127 64.7625 29.3794ZM64.0856 29.6C64.0856 28.7222 64.3675 28.1552 65.5083 28.1552C66.7553 28.1552 66.7616 28.7823 66.749 29.8708H64.7625C64.7938 30.3325 64.9379 30.5632 65.5268 30.5632C65.9844 30.5632 66.2162 30.4779 66.4229 30.3977L66.6923 30.8292C66.4041 30.9543 66.0471 31.0449 65.4892 31.0449C64.3111 31.0449 64.0856 30.493 64.0856 29.6Z" fill="var(--fill-0, #1B1C1F)"/>
</g>
</g>
<g id="Mask group_12">
<mask id="mask11_2021_870" style="mask-type:luminance" maskUnits="userSpaceOnUse" x="0" y="0" width="96" height="32">
<g id="Group_12">
<path id="Vector_12" d="M0 31.8474H95.3308V0H0V31.8474Z" fill="var(--fill-0, white)"/>
</g>
</mask>
<g mask="url(#mask11_2021_870)">
<path id="Fill-27" fill-rule="evenodd" clip-rule="evenodd" d="M68.8403 27.2926H69.5799L70.6577 30.182L71.7164 27.2926H72.4497L71.0273 31.0348H70.2564L68.8403 27.2926Z" fill="var(--fill-0, #1B1C1F)"/>
</g>
</g>
<g id="Mask group_13">
<mask id="mask12_2021_870" style="mask-type:luminance" maskUnits="userSpaceOnUse" x="0" y="0" width="96" height="32">
<g id="Group_13">
<path id="Vector_13" d="M0 31.8474H95.3308V0H0V31.8474Z" fill="var(--fill-0, white)"/>
</g>
</mask>
<g mask="url(#mask12_2021_870)">
<path id="Fill-28" fill-rule="evenodd" clip-rule="evenodd" d="M74.9744 29.6202C74.9744 29.0683 74.9055 28.6821 74.2349 28.6821C73.5708 28.6821 73.4957 29.0683 73.4957 29.6202C73.4957 30.1668 73.5708 30.5582 74.2349 30.5582C74.9055 30.5582 74.9744 30.1668 74.9744 29.6202ZM72.7874 29.6001C72.7874 28.7573 73.0317 28.1553 74.2349 28.1553C75.4446 28.1553 75.6827 28.7674 75.6827 29.6001C75.6827 30.463 75.4446 31.0497 74.2349 31.0497C73.0446 31.0497 72.7874 30.4529 72.7874 29.6001Z" fill="var(--fill-0, #1B1C1F)"/>
</g>
</g>
<g id="Mask group_14">
<mask id="mask13_2021_870" style="mask-type:luminance" maskUnits="userSpaceOnUse" x="0" y="0" width="96" height="32">
<g id="Group_14">
<path id="Vector_14" d="M0 31.8474H95.3308V0H0V31.8474Z" fill="var(--fill-0, white)"/>
</g>
</mask>
<g mask="url(#mask13_2021_870)">
<path id="Fill-29" fill-rule="evenodd" clip-rule="evenodd" d="M76.5205 28.2406L77.0718 28.2005L77.1348 28.4964C77.2788 28.3158 77.5357 28.1804 78.1124 28.1804V28.712C77.2726 28.7223 77.2225 29.1385 77.2225 29.6152V31.0097H76.5205V28.2406Z" fill="var(--fill-0, #1B1C1F)"/>
</g>
</g>
<g id="Mask group_15">
<mask id="mask14_2021_870" style="mask-type:luminance" maskUnits="userSpaceOnUse" x="0" y="0" width="96" height="32">
<g id="Group_15">
<path id="Vector_15" d="M0 31.8474H95.3308V0H0V31.8474Z" fill="var(--fill-0, white)"/>
</g>
</mask>
<g mask="url(#mask14_2021_870)">
<path id="Fill-30" fill-rule="evenodd" clip-rule="evenodd" d="M78.6339 30.8491L78.9033 30.4128C79.1414 30.5081 79.4862 30.5833 79.8621 30.5833C80.2004 30.5833 80.3821 30.488 80.3821 30.2624C80.3821 30.0364 80.207 29.9562 79.6742 29.7857C79.0728 29.5951 78.7467 29.4146 78.7467 28.9529C78.7467 28.391 79.2043 28.1553 79.9248 28.1553C80.3821 28.1553 80.6455 28.2054 80.9212 28.3007L80.6455 28.7674C80.4513 28.7019 80.207 28.647 79.8997 28.647C79.5364 28.647 79.4173 28.7523 79.4173 28.9379C79.4173 29.1335 79.5802 29.2137 80.0755 29.3692C80.7144 29.57 81.0402 29.7355 81.0402 30.2571C81.0402 30.799 80.6079 31.0447 79.8621 31.0447C79.386 31.0447 78.9534 30.9795 78.6339 30.8491Z" fill="var(--fill-0, #1B1C1F)"/>
</g>
</g>
<g id="Mask group_16">
<mask id="mask15_2021_870" style="mask-type:luminance" maskUnits="userSpaceOnUse" x="0" y="0" width="96" height="32">
<g id="Group_16">
<path id="Vector_16" d="M0 31.8474H95.3308V0H0V31.8474Z" fill="var(--fill-0, white)"/>
</g>
</mask>
<g mask="url(#mask15_2021_870)">
<path id="Fill-31" fill-rule="evenodd" clip-rule="evenodd" d="M83.903 29.6202C83.903 29.0683 83.8341 28.6821 83.1634 28.6821C82.4994 28.6821 82.4242 29.0683 82.4242 29.6202C82.4242 30.1668 82.4994 30.5582 83.1634 30.5582C83.8341 30.5582 83.903 30.1668 83.903 29.6202ZM81.716 29.6001C81.716 28.7573 81.9603 28.1553 83.1634 28.1553C84.3732 28.1553 84.6112 28.7674 84.6112 29.6001C84.6112 30.463 84.3732 31.0497 83.1634 31.0497C81.9732 31.0497 81.716 30.4529 81.716 29.6001Z" fill="var(--fill-0, #1B1C1F)"/>
</g>
</g>
<g id="Mask group_17">
<mask id="mask16_2021_870" style="mask-type:luminance" maskUnits="userSpaceOnUse" x="0" y="0" width="96" height="32">
<g id="Group_17">
<path id="Vector_17" d="M0 31.8474H95.3308V0H0V31.8474Z" fill="var(--fill-0, white)"/>
</g>
</mask>
<g mask="url(#mask16_2021_870)">
<path id="Fill-32" fill-rule="evenodd" clip-rule="evenodd" d="M85.449 28.2406L86.0003 28.2005L86.0633 28.4964C86.2074 28.3158 86.4642 28.1804 87.0406 28.1804V28.712C86.2011 28.7223 86.151 29.1385 86.151 29.6152V31.0097H85.449V28.2406Z" fill="var(--fill-0, #1B1C1F)"/>
</g>
</g>
<g id="Mask group_18">
<mask id="mask17_2021_870" style="mask-type:luminance" maskUnits="userSpaceOnUse" x="0" y="0" width="96" height="32">
<g id="Group_18">
<path id="Vector_18" d="M0 31.8474H95.3308V0H0V31.8474Z" fill="var(--fill-0, white)"/>
</g>
</mask>
<g mask="url(#mask17_2021_870)">
<path id="Fill-33" fill-rule="evenodd" clip-rule="evenodd" d="M89.5861 29.1034C89.5861 28.7824 89.3982 28.642 88.9844 28.642C88.5772 28.642 88.383 28.7824 88.383 29.1034C88.383 29.4243 88.5772 29.565 88.9844 29.565C89.3982 29.565 89.5861 29.4243 89.5861 29.1034ZM89.749 31.0296C89.749 30.799 89.6237 30.7137 88.9844 30.7137C88.3955 30.7137 88.2201 30.8341 88.2201 31.0748C88.2201 31.3408 88.3892 31.4211 88.9844 31.4211C89.6174 31.4211 89.749 31.3108 89.749 31.0296ZM88.5521 29.9863C88.5333 30.0264 88.5271 30.0715 88.5271 30.1116C88.5271 30.247 88.6398 30.2874 89.0348 30.2874C90.1503 30.2874 90.4572 30.4677 90.4572 30.9996C90.4572 31.6116 89.9933 31.8473 88.991 31.8473C87.9629 31.8473 87.5244 31.6969 87.5244 31.1701C87.5244 30.8341 87.7123 30.6034 88.1324 30.5181C87.9946 30.4429 87.9319 30.3072 87.9319 30.1568C87.9319 30.0414 87.9758 29.9311 88.0631 29.8308C87.8251 29.6904 87.6935 29.4547 87.6935 29.0983C87.6935 28.4163 88.1637 28.1503 88.9844 28.1503C89.0599 28.1503 89.1413 28.1553 89.229 28.1603L90.4259 27.9948V28.4361H89.9244C90.1374 28.5517 90.2752 28.7623 90.2752 29.0983C90.2752 29.7857 89.7678 30.0113 88.9844 30.0113C88.8278 30.0113 88.6837 30.0063 88.5521 29.9863Z" fill="var(--fill-0, #1B1C1F)"/>
</g>
</g>
<g id="Mask group_19">
<mask id="mask18_2021_870" style="mask-type:luminance" maskUnits="userSpaceOnUse" x="0" y="0" width="96" height="32">
<g id="Group_19">
<path id="Vector_19" d="M0 31.8474H95.3308V0H0V31.8474Z" fill="var(--fill-0, white)"/>
</g>
</mask>
<g mask="url(#mask18_2021_870)">
<path id="Fill-34" fill-rule="evenodd" clip-rule="evenodd" d="M91.753 29.3794H93.0943C93.0877 28.9227 93.0689 28.6519 92.4801 28.6519C91.9159 28.6519 91.7781 28.9127 91.753 29.3794ZM91.0765 29.6C91.0765 28.7222 91.3584 28.1552 92.4989 28.1552C93.7459 28.1552 93.7521 28.7823 93.7396 29.8708H91.753C91.7844 30.3325 91.9284 30.5632 92.5177 30.5632C92.975 30.5632 93.2071 30.4779 93.4135 30.3977L93.6832 30.8292C93.395 30.9543 93.0376 31.0449 92.4801 31.0449C91.302 31.0449 91.0765 30.493 91.0765 29.6Z" fill="var(--fill-0, #1B1C1F)"/>
</g>
</g>
<g id="Mask group_20">
<mask id="mask19_2021_870" style="mask-type:luminance" maskUnits="userSpaceOnUse" x="0" y="0" width="96" height="32">
<g id="Group_20">
<path id="Vector_20" d="M0 31.8474H95.3308V0H0V31.8474Z" fill="var(--fill-0, white)"/>
</g>
</mask>
<g mask="url(#mask19_2021_870)">
<path id="Fill-35" fill-rule="evenodd" clip-rule="evenodd" d="M94.5034 31.0096H95.3303V30.2922H94.5034V31.0096Z" fill="var(--fill-0, #1B1C1F)"/>
</g>
</g>
<g id="Mask group_21">
<mask id="mask20_2021_870" style="mask-type:luminance" maskUnits="userSpaceOnUse" x="0" y="0" width="96" height="32">
<g id="Group_21">
<path id="Vector_21" d="M0 31.8474H95.3308V0H0V31.8474Z" fill="var(--fill-0, white)"/>
</g>
</mask>
<g mask="url(#mask20_2021_870)">
<path id="Fill-36" fill-rule="evenodd" clip-rule="evenodd" d="M21.4443 9.08819L21.4446 8.13802e-05H10.0916V3.02936H17.6602V9.08819C17.6602 9.08819 21.4429 9.08485 21.4443 9.08819Z" fill="var(--fill-0, #1B1C1F)"/>
</g>
</g>
<g id="Mask group_22">
<mask id="mask21_2021_870" style="mask-type:luminance" maskUnits="userSpaceOnUse" x="0" y="0" width="96" height="32">
<g id="Group_22">
<path id="Vector_22" d="M0 31.8474H95.3308V0H0V31.8474Z" fill="var(--fill-0, white)"/>
</g>
</mask>
<g mask="url(#mask21_2021_870)">
<path id="Fill-37" fill-rule="evenodd" clip-rule="evenodd" d="M-0.000185649 17.1674H11.3528V8.07902H-0.000185649V17.1674Z" fill="var(--fill-0, #D02C30)"/>
</g>
</g>
</g>
</svg>
